<svg width="20" height="16" viewBox="0 0 20 16" fill="none" xmlns="http://www.w3.org/2000/svg">
<path fill-rule="evenodd" clip-rule="evenodd" d="M0 7.74398C1.14622 3.29056 5.18887 0 10 0C14.8111 0 18.8538 3.29056 20 7.74398C18.8538 12.1974 14.8111 15.488 10 15.488C5.18887 15.488 1.14622 12.1974 0 7.74398ZM14 7.74402C14 9.95316 12.2091 11.744 10 11.744C7.79086 11.744 6 9.95316 6 7.74402C6 5.53488 7.79086 3.74402 10 3.74402C12.2091 3.74402 14 5.53488 14 7.74402ZM10 9.74402C11.1046 9.74402 12 8.84859 12 7.74402C12 6.63945 11.1046 5.74402 10 5.74402C8.89543 5.74402 8 6.63945 8 7.74402C8 8.84859 8.89543 9.74402 10 9.74402Z" fill="#282828"/>
</svg>
